<svg width="47" height="47" viewBox="0 0 47 47" fill="none" xmlns="http://www.w3.org/2000/svg">
<path d="M23.4278 0C10.4924 0 0 10.4924 0 23.4278C0 36.3633 10.4924 46.8556 23.4278 46.8556C36.3633 46.8556 46.8556 36.3633 46.8556 23.4278C46.8556 10.4924 36.3633 0 23.4278 0ZM32.6493 11.8198H29.9097C27.2124 11.8198 26.3651 13.5003 26.3651 15.2231V19.3043H32.3951L31.4348 25.5884H26.3651V40.7975H19.5585V25.5884H14.0369V19.3043H19.5585V14.5171C19.5585 9.0661 22.8065 6.0582 27.7773 6.0582C30.1638 6.0582 32.6493 6.48183 32.6493 6.48183V11.834V11.8198Z" fill="#D4FC62"/>
</svg>
