<svg width="108" height="55" viewBox="0 0 108 55" fill="none" xmlns="http://www.w3.org/2000/svg">
<path d="M28.7556 4.5525C28.3507 4.44938 27.9382 4.36861 27.5309 4.24807C27.0713 4.10998 26.6196 3.85009 26.1418 4.01277C25.3579 4.2715 25.1614 5.15101 24.9355 5.87133C23.8849 5.54255 22.8267 5.21126 21.7836 4.86013C21.0608 4.61684 19.9117 3.96458 19.1229 4.18849C17.829 4.55761 17.2434 6.71633 16.7872 7.97298C16.6034 7.92769 16.4271 7.86004 16.2507 7.81726C13.4756 7.14031 12.5568 8.46521 11.6716 11.0457C10.6887 13.8919 11.4512 14.9781 14.1851 16.1224C16.3454 17.0237 18.5557 17.8258 20.771 18.613C20.0766 21.4153 18.783 24.2233 17.8898 26.9753C17.127 29.3399 16.3469 31.7069 15.6437 34.0915C13.4257 33.3864 11.2001 32.7036 8.94939 32.1202C6.10494 31.3784 4.82094 31.7674 3.87768 34.6436C3.20551 36.6405 2.70951 38.7547 4.8943 39.7805C5.2816 39.9606 5.67393 40.1259 6.06876 40.2836C5.67226 41.5355 4.91083 43.4526 5.58402 44.4838C6.44283 45.8015 9.69288 46.4227 11.0614 46.8916C11.1061 46.9067 11.1582 46.9242 11.2029 46.9393C10.9825 47.4955 10.717 48.161 10.7552 48.6882C10.8295 49.6505 12.3654 49.8192 13.0832 50.0525C13.8308 50.2958 14.9178 50.9603 15.4325 50.0967C15.6849 49.6673 15.8753 49.1756 16.0259 48.6788C17.7694 49.2657 19.5406 49.7458 21.1985 49.8725C23.2765 50.0328 23.8786 48.1948 24.5178 46.4191C24.7687 46.487 25.022 46.5722 25.2754 46.6327C27.7672 47.2392 28.3701 45.9655 29.1297 43.8322C29.6111 42.4762 30.8102 40.4908 29.7076 39.232C29.0535 38.4892 27.6201 38.1146 26.7285 37.7813C24.8113 37.0696 22.8616 36.4299 20.9193 35.7927C20.7628 35.74 20.6063 35.6873 20.4573 35.6372C22.1158 30.5131 24.1022 25.4497 25.547 20.2704C27.2681 20.8746 29.0042 21.459 30.7478 22.021C31.873 22.3749 33.2409 23.0427 34.4268 23.0437C36.4604 23.0398 36.7804 20.7584 37.3023 19.134C37.887 17.2985 38.5154 15.8261 36.5571 14.6941C36.1551 14.4592 35.7156 14.2615 35.2612 14.0836C35.8032 12.3748 36.4203 10.517 34.7528 9.4082C33.4303 8.53166 31.7813 7.93511 30.1046 7.42051C30.3276 6.85682 30.521 6.18364 30.4455 5.64392C30.3359 4.88533 29.4065 4.71353 28.7805 4.55258L28.7556 4.5525ZM14.5744 49.3931C14.0949 49.2897 13.5908 49.062 13.1438 48.9115C12.8681 48.8187 12.5824 48.7309 12.3067 48.6381C12.2322 48.613 11.9121 48.4305 11.8422 48.5149C11.8577 48.321 12.0229 47.9535 12.0631 47.8095C12.1207 47.6381 12.1759 47.4742 12.2336 47.3028C13.1277 47.6286 14.0614 47.9844 15.0027 48.3178C14.8972 48.6805 14.7494 49.0704 14.5669 49.3906L14.5744 49.3931ZM20.6379 48.6054C19.7903 48.5358 18.8766 48.1453 18.0519 47.9091C15.8162 47.281 13.5981 46.6007 11.3976 45.8434C10.1111 45.4021 8.5136 45.022 7.35721 44.2926C5.99484 43.4359 6.65027 42.0555 7.08948 40.6521C9.49602 41.512 12.055 42.1162 14.4317 42.966C17.3548 44.0163 20.4092 45.2186 23.4447 46.1077C22.8656 47.7294 22.6264 48.7604 20.6404 48.598L20.6379 48.6054ZM27.1075 39.0951C28.2075 39.5483 29.0524 39.7 28.9268 40.9849C28.8551 41.6908 28.3749 42.649 28.1468 43.3022C27.708 44.5564 26.7454 45.5679 25.3061 45.4817C24.2646 45.4214 22.9344 44.6418 21.9383 44.3231C19.5465 43.5429 17.1546 42.7875 14.7878 41.9328C13.2182 41.3713 11.6384 40.8893 10.0488 40.3874C8.79692 39.9909 7.58771 39.4677 6.34088 39.0563C4.28432 38.3889 4.2789 36.8525 4.91094 34.9748C5.21693 34.0658 6.09007 33.049 7.0778 32.8008C7.65499 32.6633 8.76225 33.1936 9.35346 33.3595C10.5955 33.7112 11.8201 34.0902 13.0521 34.4717C15.4068 35.1897 17.764 35.9251 20.1136 36.6828C22.4459 37.443 24.838 38.1486 27.11 39.0876L27.1075 39.0951ZM19.3918 35.3034C18.4902 34.9999 17.5761 34.7088 16.6695 34.4202C17.3702 32.0431 18.1503 29.6761 18.9106 27.3189C19.8013 24.5744 21.0949 21.7664 21.7868 18.9715C22.6859 19.2824 23.5899 19.6033 24.4889 19.9142C23.0491 25.1036 21.0527 30.1719 19.3918 35.3034ZM20.0574 10.1853C21.6171 10.7518 23.1767 11.3183 24.7664 11.8202C27.0167 12.5279 29.2345 13.3076 31.4598 14.0898C33.9161 14.9498 37.3585 15.2707 36.2343 18.7828C36.0461 19.3665 35.8985 20.5197 35.4671 20.9883C34.2474 22.3197 33.1357 21.6303 31.854 21.2238C29.6409 20.5286 27.4354 19.7862 25.2474 19.0165C22.9699 18.2167 20.7025 17.3871 18.4302 16.5476C15.9815 15.6404 11.4712 14.9434 12.6999 11.3918C13.4271 9.28074 14.3934 8.70183 16.7391 9.10155C17.8698 9.29134 19.002 9.79687 20.0649 10.1878L20.0574 10.1853ZM31.2829 9.16925C31.9981 9.43489 32.9024 9.65633 33.5501 10.0734C35.1431 11.1074 34.6801 12.1626 34.1882 13.7225C33.0779 13.3736 31.9202 13.0918 30.897 12.7308C28.9772 12.0514 27.0499 11.3943 25.1075 10.782C22.6634 10.009 20.2772 9.01502 17.8256 8.26444C18.0636 7.63117 18.277 6.92324 18.6391 6.38979C19.3482 5.34272 19.4675 5.358 20.819 5.68021C22.4935 6.07795 24.1547 6.76156 25.7866 7.28597C27.6271 7.88061 29.4651 8.48269 31.2779 9.15929L31.2829 9.16925ZM28.9868 7.09402C28.0031 6.81267 27.0319 6.5438 26.1501 6.25529C26.0905 6.23523 26.0384 6.21767 25.9788 6.19761C26.059 5.95917 26.1393 5.72073 26.227 5.48481C26.3598 5.13963 26.2878 5.1071 26.5911 5.09307C26.8348 5.08385 27.1872 5.29372 27.4232 5.35657C27.7263 5.44199 28.0319 5.4951 28.3375 5.57307C28.5834 5.63097 28.8244 5.70378 29.0628 5.78404C29.0851 5.79157 29.2266 5.86409 29.3111 5.88423C29.3135 5.9265 29.3158 5.96877 29.3058 5.99857C29.1854 6.35622 29.0948 6.72389 28.9819 7.08405L28.9868 7.09402Z" fill="#D4FC62"/>
<path d="M6.68214 37.9932C7.70132 38.8838 9.24915 39.2389 10.5387 39.4988C11.222 39.6375 11.578 38.6043 10.8873 38.4631C9.68475 38.2159 8.23622 37.9108 7.29391 37.0876C6.76326 36.6186 6.15643 37.5342 6.68214 37.9932Z" fill="#D4FC62"/>
<path d="M5.62133 36.0434C5.39561 36.714 6.4313 37.0627 6.65703 36.3921C6.88276 35.7215 5.84706 35.3728 5.62133 36.0434Z" fill="#D4FC62"/>
<path d="M14.3089 13.7583C14.6778 14.289 15.4178 14.5795 15.9764 14.8422C16.6865 15.1725 17.4314 15.473 18.1966 15.6642C18.8773 15.8353 19.2359 14.7947 18.5452 14.6285C17.9092 14.4725 17.2934 14.232 16.6925 13.9717C16.2009 13.7565 15.4558 13.5056 15.1314 13.0398C14.7279 12.4643 13.9054 13.1828 14.3089 13.7583Z" fill="#D4FC62"/>
<path d="M13.4792 11.8365C13.2535 12.5071 14.2892 12.8558 14.5149 12.1852C14.7406 11.5146 13.705 11.1659 13.4792 11.8365Z" fill="#D4FC62"/>
<path d="M41 23V9.22H48.32L48.1 10.74H42.9V15.44H47.4V16.94H42.9V23H41ZM51.8611 12.46V23H50.0211V12.46H51.8611ZM50.9211 7.4C51.3078 7.4 51.6211 7.52 51.8611 7.76C52.1011 8 52.2211 8.3 52.2211 8.66C52.2211 9.02 52.1011 9.32 51.8611 9.56C51.6211 9.78667 51.3078 9.9 50.9211 9.9C50.5478 9.9 50.2411 9.78667 50.0011 9.56C49.7611 9.32 49.6411 9.02 49.6411 8.66C49.6411 8.3 49.7611 8 50.0011 7.76C50.2411 7.52 50.5478 7.4 50.9211 7.4ZM60.9856 22.52C60.2923 23 59.5056 23.24 58.6256 23.24C57.7323 23.24 57.0323 22.9867 56.5256 22.48C56.0323 21.96 55.7856 21.2133 55.7856 20.24V13.88H53.9456V12.46H55.7856V10.08L57.6256 9.86V12.46H60.1256L59.9256 13.88H57.6256V20.16C57.6256 20.7067 57.719 21.1067 57.9056 21.36C58.1056 21.6 58.4323 21.72 58.8856 21.72C59.299 21.72 59.7656 21.58 60.2856 21.3L60.9856 22.52ZM67.8522 12.22C68.8122 12.22 69.5589 12.5067 70.0922 13.08C70.6389 13.6533 70.9122 14.44 70.9122 15.44V23H69.0722V15.7C69.0722 14.9533 68.9322 14.4267 68.6522 14.12C68.3722 13.8133 67.9589 13.66 67.4122 13.66C66.8522 13.66 66.3589 13.82 65.9322 14.14C65.5055 14.46 65.1055 14.92 64.7322 15.52V23H62.8922V12.46H64.4722L64.6322 14.02C65.0055 13.46 65.4655 13.02 66.0122 12.7C66.5722 12.38 67.1855 12.22 67.8522 12.22ZM82.5709 17.42C82.5709 17.7267 82.5576 18.04 82.5309 18.36H75.8109C75.8909 19.52 76.1843 20.3733 76.6909 20.92C77.1976 21.4667 77.8509 21.74 78.6509 21.74C79.1576 21.74 79.6243 21.6667 80.0509 21.52C80.4776 21.3733 80.9243 21.14 81.3909 20.82L82.1909 21.92C81.0709 22.8 79.8443 23.24 78.5109 23.24C77.0443 23.24 75.8976 22.76 75.0709 21.8C74.2576 20.84 73.8509 19.52 73.8509 17.84C73.8509 16.7467 74.0243 15.78 74.3709 14.94C74.7309 14.0867 75.2376 13.42 75.8909 12.94C76.5576 12.46 77.3376 12.22 78.2309 12.22C79.6309 12.22 80.7043 12.68 81.4509 13.6C82.1976 14.52 82.5709 15.7933 82.5709 17.42ZM80.7509 16.88C80.7509 15.84 80.5443 15.0467 80.1309 14.5C79.7176 13.9533 79.0976 13.68 78.2709 13.68C76.7643 13.68 75.9443 14.7867 75.8109 17H80.7509V16.88ZM88.3694 12.22C89.0894 12.22 89.736 12.32 90.3094 12.52C90.8827 12.72 91.4294 13.02 91.9494 13.42L91.1694 14.58C90.6894 14.2733 90.2294 14.0467 89.7894 13.9C89.3627 13.7533 88.9094 13.68 88.4294 13.68C87.8294 13.68 87.356 13.8067 87.0094 14.06C86.6627 14.3 86.4894 14.6333 86.4894 15.06C86.4894 15.4867 86.6494 15.82 86.9694 16.06C87.3027 16.3 87.896 16.5333 88.7494 16.76C89.9227 17.0533 90.796 17.4533 91.3694 17.96C91.956 18.4667 92.2494 19.16 92.2494 20.04C92.2494 21.08 91.8427 21.8733 91.0294 22.42C90.2294 22.9667 89.2494 23.24 88.0894 23.24C86.4894 23.24 85.1627 22.78 84.1094 21.86L85.0894 20.74C85.9827 21.42 86.9694 21.76 88.0494 21.76C88.7427 21.76 89.2894 21.62 89.6894 21.34C90.1027 21.0467 90.3094 20.6533 90.3094 20.16C90.3094 19.8 90.236 19.5133 90.0894 19.3C89.9427 19.0733 89.6894 18.88 89.3294 18.72C88.9694 18.5467 88.4427 18.3667 87.7494 18.18C86.6294 17.8867 85.816 17.4933 85.3094 17C84.816 16.5067 84.5694 15.88 84.5694 15.12C84.5694 14.5733 84.7294 14.08 85.0494 13.64C85.3827 13.1867 85.836 12.84 86.4094 12.6C86.996 12.3467 87.6494 12.22 88.3694 12.22ZM97.51 12.22C98.23 12.22 98.8767 12.32 99.45 12.52C100.023 12.72 100.57 13.02 101.09 13.42L100.31 14.58C99.83 14.2733 99.37 14.0467 98.93 13.9C98.5033 13.7533 98.05 13.68 97.57 13.68C96.97 13.68 96.4967 13.8067 96.15 14.06C95.8033 14.3 95.63 14.6333 95.63 15.06C95.63 15.4867 95.79 15.82 96.11 16.06C96.4433 16.3 97.0367 16.5333 97.89 16.76C99.0633 17.0533 99.9367 17.4533 100.51 17.96C101.097 18.4667 101.39 19.16 101.39 20.04C101.39 21.08 100.983 21.8733 100.17 22.42C99.37 22.9667 98.39 23.24 97.23 23.24C95.63 23.24 94.3033 22.78 93.25 21.86L94.23 20.74C95.1233 21.42 96.11 21.76 97.19 21.76C97.8833 21.76 98.43 21.62 98.83 21.34C99.2433 21.0467 99.45 20.6533 99.45 20.16C99.45 19.8 99.3767 19.5133 99.23 19.3C99.0833 19.0733 98.83 18.88 98.47 18.72C98.11 18.5467 97.5833 18.3667 96.89 18.18C95.77 17.8867 94.9567 17.4933 94.45 17C93.9567 16.5067 93.71 15.88 93.71 15.12C93.71 14.5733 93.87 14.08 94.19 13.64C94.5233 13.1867 94.9767 12.84 95.55 12.6C96.1367 12.3467 96.79 12.22 97.51 12.22ZM53.32 47H51.48L51 40.78C50.8 38.34 50.6867 36.4667 50.66 35.16L47.68 45.44H45.9L42.76 35.14C42.76 36.8067 42.6733 38.7333 42.5 40.92L42.04 47H40.24L41.38 33.22H43.94L46.84 43.24L49.6 33.22H52.18L53.32 47ZM63.5664 44.54C63.5664 44.9667 63.6397 45.2867 63.7864 45.5C63.9331 45.7 64.1531 45.8533 64.4464 45.96L64.0264 47.24C63.4797 47.1733 63.0397 47.02 62.7064 46.78C62.3731 46.54 62.1264 46.1667 61.9664 45.66C61.2597 46.7133 60.2131 47.24 58.8264 47.24C57.7864 47.24 56.9664 46.9467 56.3664 46.36C55.7664 45.7733 55.4664 45.0067 55.4664 44.06C55.4664 42.94 55.8664 42.08 56.6664 41.48C57.4797 40.88 58.6264 40.58 60.1064 40.58H61.7264V39.8C61.7264 39.0533 61.5464 38.52 61.1864 38.2C60.8264 37.88 60.2731 37.72 59.5264 37.72C58.7531 37.72 57.8064 37.9067 56.6864 38.28L56.2264 36.94C57.5331 36.46 58.7464 36.22 59.8664 36.22C61.1064 36.22 62.0331 36.5267 62.6464 37.14C63.2597 37.74 63.5664 38.6 63.5664 39.72V44.54ZM59.2464 45.86C60.2997 45.86 61.1264 45.3133 61.7264 44.22V41.8H60.3464C58.3997 41.8 57.4264 42.52 57.4264 43.96C57.4264 44.5867 57.5797 45.06 57.8864 45.38C58.1931 45.7 58.6464 45.86 59.2464 45.86ZM70.01 36.22C70.73 36.22 71.3767 36.32 71.95 36.52C72.5233 36.72 73.07 37.02 73.59 37.42L72.81 38.58C72.33 38.2733 71.87 38.0467 71.43 37.9C71.0033 37.7533 70.55 37.68 70.07 37.68C69.47 37.68 68.9967 37.8067 68.65 38.06C68.3033 38.3 68.13 38.6333 68.13 39.06C68.13 39.4867 68.29 39.82 68.61 40.06C68.9433 40.3 69.5367 40.5333 70.39 40.76C71.5633 41.0533 72.4367 41.4533 73.01 41.96C73.5967 42.4667 73.89 43.16 73.89 44.04C73.89 45.08 73.4833 45.8733 72.67 46.42C71.87 46.9667 70.89 47.24 69.73 47.24C68.13 47.24 66.8033 46.78 65.75 45.86L66.73 44.74C67.6233 45.42 68.61 45.76 69.69 45.76C70.3833 45.76 70.93 45.62 71.33 45.34C71.7433 45.0467 71.95 44.6533 71.95 44.16C71.95 43.8 71.8767 43.5133 71.73 43.3C71.5833 43.0733 71.33 42.88 70.97 42.72C70.61 42.5467 70.0833 42.3667 69.39 42.18C68.27 41.8867 67.4567 41.4933 66.95 41C66.4567 40.5067 66.21 39.88 66.21 39.12C66.21 38.5733 66.37 38.08 66.69 37.64C67.0233 37.1867 67.4767 36.84 68.05 36.6C68.6367 36.3467 69.29 36.22 70.01 36.22ZM81.8059 46.52C81.1126 47 80.3259 47.24 79.4459 47.24C78.5526 47.24 77.8526 46.9867 77.3459 46.48C76.8526 45.96 76.6059 45.2133 76.6059 44.24V37.88H74.7659V36.46H76.6059V34.08L78.4459 33.86V36.46H80.9459L80.7459 37.88H78.4459V44.16C78.4459 44.7067 78.5393 45.1067 78.7259 45.36C78.9259 45.6 79.2526 45.72 79.7059 45.72C80.1193 45.72 80.5859 45.58 81.1059 45.3L81.8059 46.52ZM91.3795 41.42C91.3795 41.7267 91.3662 42.04 91.3395 42.36H84.6195C84.6995 43.52 84.9929 44.3733 85.4995 44.92C86.0062 45.4667 86.6595 45.74 87.4595 45.74C87.9662 45.74 88.4329 45.6667 88.8595 45.52C89.2862 45.3733 89.7329 45.14 90.1995 44.82L90.9995 45.92C89.8795 46.8 88.6529 47.24 87.3195 47.24C85.8529 47.24 84.7062 46.76 83.8795 45.8C83.0662 44.84 82.6595 43.52 82.6595 41.84C82.6595 40.7467 82.8329 39.78 83.1795 38.94C83.5395 38.0867 84.0462 37.42 84.6995 36.94C85.3662 36.46 86.1462 36.22 87.0395 36.22C88.4395 36.22 89.5129 36.68 90.2595 37.6C91.0062 38.52 91.3795 39.7933 91.3795 41.42ZM89.5595 40.88C89.5595 39.84 89.3529 39.0467 88.9395 38.5C88.5262 37.9533 87.9062 37.68 87.0795 37.68C85.5729 37.68 84.7529 38.7867 84.6195 41H89.5595V40.88ZM98.898 36.22C99.2713 36.22 99.618 36.26 99.938 36.34L99.598 38.14C99.278 38.06 98.9713 38.02 98.678 38.02C98.0246 38.02 97.498 38.26 97.098 38.74C96.698 39.22 96.3846 39.9667 96.158 40.98V47H94.318V36.46H95.898L96.078 38.6C96.358 37.8133 96.738 37.22 97.218 36.82C97.698 36.42 98.258 36.22 98.898 36.22Z" fill="#D4FC62"/>
</svg>
