<svg width="48" height="48" viewBox="0 0 48 48" fill="none" xmlns="http://www.w3.org/2000/svg">
<path d="M24.0487 19.0824C21.5603 19.0824 19.5411 21.1016 19.5411 23.59C19.5411 26.0784 21.5603 28.0975 24.0487 28.0975C26.5371 28.0975 28.5562 26.0784 28.5562 23.59C28.5562 21.1016 26.5371 19.0824 24.0487 19.0824Z" fill="#D4FC62"/>
<path d="M29.6511 11.9869H18.2329C14.9767 11.9869 12.3319 14.6317 12.3319 17.888V29.3062C12.3319 32.5624 14.9767 35.2073 18.2329 35.2073H29.6511C32.9074 35.2073 35.5522 32.5624 35.5522 29.3062V17.888C35.5522 14.6317 32.9074 11.9869 29.6511 11.9869ZM24.0629 30.6286C20.181 30.6286 17.0243 27.4719 17.0243 23.59C17.0243 19.7081 20.181 16.5514 24.0629 16.5514C27.9448 16.5514 31.1015 19.7081 31.1015 23.59C31.1015 27.4719 27.9448 30.6286 24.0629 30.6286ZM31.5139 17.7458C30.5896 17.7458 29.8359 16.9922 29.8359 16.0679C29.8359 15.1436 30.5896 14.39 31.5139 14.39C32.4381 14.39 33.1917 15.1436 33.1917 16.0679C33.1917 16.9922 32.4381 17.7458 31.5139 17.7458Z" fill="#D4FC62"/>
<path d="M23.9349 0C10.9099 0 0.34491 10.565 0.34491 23.59C0.34491 36.615 10.9099 47.18 23.9349 47.18C36.9599 47.18 47.5249 36.615 47.5249 23.59C47.5249 10.565 36.9599 0 23.9349 0ZM38.2254 29.2919C38.2254 34.027 34.3719 37.8805 29.6369 37.8805H18.2187C13.4836 37.8805 9.63018 34.027 9.63018 29.2919V17.8738C9.63018 13.1387 13.4836 9.28527 18.2187 9.28527H29.6369C34.3719 9.28527 38.2254 13.1387 38.2254 17.8738V29.2919Z" fill="#D4FC62"/>
</svg>
