<svg width="23" height="28" viewBox="0 0 23 28" fill="none" xmlns="http://www.w3.org/2000/svg">
<path d="M11.4921 0C5.14949 0 0 5.00286 0 11.1649C0 15.6644 6.12287 23.2755 9.43549 27.0734C10.5188 28.3089 12.4812 28.3089 13.5645 27.0734C16.8771 23.2908 23 15.6644 23 11.1649C23 5.00286 17.8505 0 11.5079 0H11.4921ZM11.4921 13.3003C9.98498 13.3003 8.74471 12.1106 8.74471 10.6311C8.74471 9.15157 9.96928 7.96186 11.4921 7.96186C13.015 7.96186 14.2396 9.15157 14.2396 10.6311C14.2396 12.1106 13.015 13.3003 11.4921 13.3003Z" fill="#FFFEFE"/>
</svg>
