<svg width="48" height="47" viewBox="0 0 48 47" fill="none" xmlns="http://www.w3.org/2000/svg">
<path d="M23.6311 0C10.6957 0 0.203262 10.4924 0.203262 23.4278C0.203262 36.3633 10.6957 46.8556 23.6311 46.8556C36.5666 46.8556 47.0589 36.3633 47.0589 23.4278C47.0589 10.4924 36.5666 0 23.6311 0ZM34.8013 15.2373C34.7307 16.1834 34.1941 19.502 33.6575 23.0889C32.8384 28.1727 31.9628 33.7225 31.9628 33.7225C31.9628 33.7225 31.8217 35.2759 30.6778 35.5442C29.534 35.8125 27.6275 34.598 27.2886 34.3297C27.0203 34.132 22.2048 31.0818 20.4538 29.5849C19.9736 29.1754 19.437 28.3704 20.5243 27.4242C22.9674 25.193 25.8764 22.4111 27.6275 20.66C28.4465 19.8409 29.2515 17.9486 25.8623 20.2504C21.0609 23.569 16.3161 26.6758 16.3161 26.6758C16.3161 26.6758 15.2287 27.3536 13.1952 26.7464C11.1617 26.1392 8.78925 25.3201 8.78925 25.3201C8.78925 25.3201 7.16526 24.3034 9.9331 23.216C9.9331 23.216 21.6399 18.4146 25.707 16.72C27.2603 16.0422 32.5419 13.8816 32.5419 13.8816C32.5419 13.8816 34.9849 12.9354 34.773 15.2373H34.8013Z" fill="#D4FC62"/>
</svg>
